<svg id="visual" viewBox="0 0 900 600" width="900" height="600" xmlns="http://www.w3.org/2000/svg" xmlns:xlink="http://www.w3.org/1999/xlink" version="1.1"><rect x="0" y="0" width="900" height="600" fill="#ffffff"></rect><path d="M0 197L16.7 199.3C33.3 201.7 66.7 206.3 100 217.5C133.3 228.7 166.7 246.3 200 249.8C233.3 253.3 266.7 242.7 300 236.5C333.3 230.3 366.7 228.7 400 223.2C433.3 217.7 466.7 208.3 500 209.5C533.3 210.7 566.7 222.3 600 225.3C633.3 228.3 666.7 222.7 700 228.2C733.3 233.7 766.7 250.3 800 257.5C833.3 264.7 866.7 262.3 883.3 261.2L900 260L900 601L883.3 601C866.7 601 833.3 601 800 601C766.7 601 733.3 601 700 601C666.7 601 633.3 601 600 601C566.7 601 533.3 601 500 601C466.7 601 433.3 601 400 601C366.7 601 333.3 601 300 601C266.7 601 233.3 601 200 601C166.7 601 133.3 601 100 601C66.7 601 33.3 601 16.7 601L0 601Z" fill="#fcfcfc"></path><path d="M0 337L16.7 337.7C33.3 338.3 66.7 339.7 100 344.5C133.3 349.3 166.7 357.7 200 354.8C233.3 352 266.7 338 300 328.7C333.3 319.3 366.7 314.7 400 314.7C433.3 314.7 466.7 319.3 500 324.5C533.3 329.7 566.7 335.3 600 343C633.3 350.7 666.7 360.3 700 357.2C733.3 354 766.7 338 800 330.2C833.3 322.3 866.7 322.7 883.3 322.8L900 323L900 601L883.3 601C866.7 601 833.3 601 800 601C766.7 601 733.3 601 700 601C666.7 601 633.3 601 600 601C566.7 601 533.3 601 500 601C466.7 601 433.3 601 400 601C366.7 601 333.3 601 300 601C266.7 601 233.3 601 200 601C166.7 601 133.3 601 100 601C66.7 601 33.3 601 16.7 601L0 601Z" fill="#f5f5f5"></path><path d="M0 472L16.7 469.3C33.3 466.7 66.7 461.3 100 458C133.3 454.7 166.7 453.3 200 454.5C233.3 455.7 266.7 459.3 300 458.5C333.3 457.7 366.7 452.3 400 448.3C433.3 444.3 466.7 441.7 500 444.5C533.3 447.3 566.7 455.7 600 453.2C633.3 450.7 666.7 437.3 700 434.7C733.3 432 766.7 440 800 439.7C833.3 439.3 866.7 430.7 883.3 426.3L900 422L900 601L883.3 601C866.7 601 833.3 601 800 601C766.7 601 733.3 601 700 601C666.7 601 633.3 601 600 601C566.7 601 533.3 601 500 601C466.7 601 433.3 601 400 601C366.7 601 333.3 601 300 601C266.7 601 233.3 601 200 601C166.7 601 133.3 601 100 601C66.7 601 33.3 601 16.7 601L0 601Z" fill="#efefef"></path></svg>