<svg id="visual" viewBox="0 0 900 600" width="900" height="600" xmlns="http://www.w3.org/2000/svg" xmlns:xlink="http://www.w3.org/1999/xlink" version="1.1"><rect x="0" y="0" width="900" height="600" fill="#ffffff"></rect><path d="M0 413L21.5 395.3C43 377.7 86 342.3 128.8 339.3C171.7 336.3 214.3 365.7 257.2 371.7C300 377.7 343 360.3 385.8 346.2C428.7 332 471.3 321 514.2 317.5C557 314 600 318 642.8 325.8C685.7 333.7 728.3 345.3 771.2 358.7C814 372 857 387 878.5 394.5L900 402L900 601L878.5 601C857 601 814 601 771.2 601C728.3 601 685.7 601 642.8 601C600 601 557 601 514.2 601C471.3 601 428.7 601 385.8 601C343 601 300 601 257.2 601C214.3 601 171.7 601 128.8 601C86 601 43 601 21.5 601L0 601Z" fill="#d7ebf9"></path><path d="M0 415L21.5 411C43 407 86 399 128.8 397C171.7 395 214.3 399 257.2 408C300 417 343 431 385.8 422.7C428.7 414.3 471.3 383.7 514.2 385.2C557 386.7 600 420.3 642.8 432.7C685.7 445 728.3 436 771.2 419.3C814 402.7 857 378.3 878.5 366.2L900 354L900 601L878.5 601C857 601 814 601 771.2 601C728.3 601 685.7 601 642.8 601C600 601 557 601 514.2 601C471.3 601 428.7 601 385.8 601C343 601 300 601 257.2 601C214.3 601 171.7 601 128.8 601C86 601 43 601 21.5 601L0 601Z" fill="#c1dbef"></path><path d="M0 443L21.5 448.7C43 454.3 86 465.7 128.8 466.3C171.7 467 214.3 457 257.2 451C300 445 343 443 385.8 441.2C428.7 439.3 471.3 437.7 514.2 435.7C557 433.7 600 431.3 642.8 437.2C685.7 443 728.3 457 771.2 453.3C814 449.7 857 428.3 878.5 417.7L900 407L900 601L878.5 601C857 601 814 601 771.2 601C728.3 601 685.7 601 642.8 601C600 601 557 601 514.2 601C471.3 601 428.7 601 385.8 601C343 601 300 601 257.2 601C214.3 601 171.7 601 128.8 601C86 601 43 601 21.5 601L0 601Z" fill="#accae6"></path><path d="M0 478L21.5 484.5C43 491 86 504 128.8 510C171.7 516 214.3 515 257.2 505C300 495 343 476 385.8 478.5C428.7 481 471.3 505 514.2 516.8C557 528.7 600 528.3 642.8 527.2C685.7 526 728.3 524 771.2 519.7C814 515.3 857 508.7 878.5 505.3L900 502L900 601L878.5 601C857 601 814 601 771.2 601C728.3 601 685.7 601 642.8 601C600 601 557 601 514.2 601C471.3 601 428.7 601 385.8 601C343 601 300 601 257.2 601C214.3 601 171.7 601 128.8 601C86 601 43 601 21.5 601L0 601Z" fill="#98badd"></path><path d="M0 543L21.5 541.3C43 539.7 86 536.3 128.8 531.2C171.7 526 214.3 519 257.2 520.2C300 521.3 343 530.7 385.8 538.2C428.7 545.7 471.3 551.3 514.2 546.5C557 541.7 600 526.3 642.8 519.2C685.7 512 728.3 513 771.2 521.8C814 530.7 857 547.3 878.5 555.7L900 564L900 601L878.5 601C857 601 814 601 771.2 601C728.3 601 685.7 601 642.8 601C600 601 557 601 514.2 601C471.3 601 428.7 601 385.8 601C343 601 300 601 257.2 601C214.3 601 171.7 601 128.8 601C86 601 43 601 21.5 601L0 601Z" fill="#85a9d3"></path></svg>