<svg id="visual" viewBox="0 0 900 600" width="900" height="600" xmlns="http://www.w3.org/2000/svg" xmlns:xlink="http://www.w3.org/1999/xlink" version="1.1"><path d="M0 109L150 127L300 163L450 193L600 37L750 109L900 37L900 0L750 0L600 0L450 0L300 0L150 0L0 0Z" fill="#ffffff"></path><path d="M0 205L150 199L300 217L450 217L600 175L750 253L900 67L900 35L750 107L600 35L450 191L300 161L150 125L0 107Z" fill="#f5fef7"></path><path d="M0 295L150 235L300 229L450 307L600 223L750 343L900 109L900 65L750 251L600 173L450 215L300 215L150 197L0 203Z" fill="#eafdf0"></path><path d="M0 343L150 541L300 427L450 565L600 553L750 523L900 493L900 107L750 341L600 221L450 305L300 227L150 233L0 293Z" fill="#dffce9"></path><path d="M0 601L150 601L300 601L450 601L600 601L750 601L900 601L900 491L750 521L600 551L450 563L300 425L150 539L0 341Z" fill="#d4fbe2"></path></svg>